<?xml version="1.0" standalone="no"?>
<svg viewBox="0 0 1024 768" version="1.1" xmlns="http://www.w3.org/2000/svg" xmlns:xlink="http://www.w3.org/1999/xlink" stroke-linecap="round" stroke-linejoin="round" fill-rule="evenodd" xml:space="preserve" style="background-color:rgb(0,0,0);" >
<defs >
<style >g[clip-path] > * {vector-effect: non-scaling-stroke;}</style>
<clipPath id="clipId0" >
<path d="M0,768 1024,768 1024,0 0,0 z" />
</clipPath>
</defs>
<g clip-path="url(#clipId0)" fill="none" stroke="rgb(255,255,255)" stroke-width="1px" />
<g clip-path="url(#clipId0)" fill="none" stroke="rgb(255,255,255)" stroke-width="1px" >
<polyline points="108.673,490.873 108.673,84.1165 " />
<path d="M119.319,70.8456  A13.5946,13.5946 0 0,0 108.673,84.1165 " />
<polyline points="119.319,70.8456 216.247,49.306 " />
<path d="M216.725,49.2087  A13.5946,13.5946 0 0,0 216.247,49.306 " />
<polyline points="216.725,49.2087 364.842,21.8262 " />
<path d="M365.533,21.7169  A13.5946,13.5946 0 0,0 364.842,21.8262 " />
<polyline points="365.533,21.7169 471.993,7.64661 " />
<path d="M474.959,7.58114  A13.5946,13.5946 0 0,0 471.993,7.64661 " />
<polyline points="474.959,7.58114 601.914,18.6883 " />
<path d="M604.824,19.2678  A13.5946,13.5946 0 0,0 601.914,18.6883 " />
<polyline points="604.824,19.2678 810.203,84.1372 " />
<path d="M810.203,84.1372  A10.0482,10.0482 0 0,0 812.354,84.5655 " />
<polyline points="812.354,84.5655 902.917,92.4888 " />
<path d="M915.275,107.217  A13.5946,13.5946 0 0,0 902.917,92.4888 " />
<polyline points="915.275,107.217 897.315,312.505 " />
<path d="M889.693,323.557  A13.5946,13.5946 0 0,0 897.315,312.505 " />
<polyline points="889.692,323.558 792.737,370.469 " />
<path d="M792.737,370.469  A10.0482,10.0482 0 0,0 787.103,378.639 " />
<polyline points="787.103,378.639 775.985,505.722 " />
<path d="M775.985,505.723  A10.0482,10.0482 0 0,0 778.042,512.741 " />
<polyline points="778.042,512.741 890.3,658.102 " />
<path d="M889.955,675.151  A13.5946,13.5946 0 0,0 890.301,658.104 " />
<polyline points="889.955,675.152 822.44,755.613 " />
<path d="M805.646,758.881  A13.5946,13.5946 0 0,0 822.439,755.614 " />
<polyline points="805.646,758.881 496.246,594.501 " />
<path d="M496.246,594.501  A10.0482,10.0482 0 0,0 493.866,593.601 " />
<polyline points="493.866,593.601 119.11,504.096 " />
<path d="M108.673,490.873  A13.5946,13.5946 0 0,0 119.11,504.096 " />
</g>
</svg>
