<?xml version="1.0" standalone="no"?>
 <!DOCTYPE svg PUBLIC "-//W3C//DTD SVG 1.1//EN" 
 "http://www.w3.org/Graphics/SVG/1.1/DTD/svg11.dtd"> 
<svg
  xmlns:svg="http://www.w3.org/2000/svg"
  xmlns="http://www.w3.org/2000/svg"
  xmlns:xlink="http://www.w3.org/1999/xlink"
  version="1.1"
  width="419.9890mm" height="297.0022mm" viewBox="0.0000 0.0000 419.9890 297.0022">
<title>SVG Image created as bug54-Edge_Cuts.svg date 2026/05/12 17:17:29 </title>
  <desc>Image generated by PCBNEW </desc>
<g style="fill:#000000; fill-opacity:1.0000;stroke:#000000; stroke-opacity:1.0000;
stroke-linecap:round; stroke-linejoin:round;"
 transform="translate(0 0) scale(1 1)">
</g>
<g style="fill:none; 
stroke:#000000; stroke-width:0.1500; stroke-opacity:1; 
stroke-linecap:round; stroke-linejoin:round;">
<path d="M109.0000 158.9214
L109.0000 90.1043
" />
<path d="M110.5661 88.1520
L126.9650 84.5078
" />
<path d="M127.0353 84.4935
L152.0945 79.8608
" />
<path d="M152.1960 79.8447
L170.2075 77.4642
" />
<path d="M170.6439 77.4546
L192.1228 79.3337
" />
<path d="M192.5508 79.4190
L227.2979 90.3939
" />
<path d="M227.7259 90.4792
L243.0479 91.8197
" />
<path d="M244.8659 93.9864
L241.8273 128.7180
" />
<path d="M240.7060 130.3440
L224.3025 138.2808
" />
<path d="M223.1812 139.9069
L221.3001 161.4077
" />
<path d="M221.7096 162.8044
L240.7021 187.3976
" />
<path d="M240.6513 189.9056
L229.2285 203.5188
" />
<path d="M226.7581 203.9994
L174.4123 176.1888
" />
<path d="M173.9385 176.0097
L110.5354 160.8667
" />
<path d="M110.5661 88.1519 A2.0000 2.0000 0.0 0 0 109.0000 90.1043" />
<path d="M127.0353 84.4935 A1.9974 1.9974 0.0 0 0 126.9650 84.5078" />
<path d="M152.1960 79.8447 A1.9997 1.9997 0.0 0 0 152.0945 79.8608" />
<path d="M170.6439 77.4546 A1.9999 1.9999 0.0 0 0 170.2075 77.4642" />
<path d="M192.5508 79.4190 A2.0000 2.0000 0.0 0 0 192.1228 79.3337" />
<path d="M227.2979 90.3939 A2.0000 2.0000 0.0 0 0 227.7259 90.4792" />
<path d="M244.8660 93.9864 A2.0000 2.0000 0.0 0 0 243.0479 91.8197" />
<path d="M240.7060 130.3440 A2.0000 2.0000 0.0 0 0 241.8273 128.7180" />
<path d="M224.3025 138.2808 A2.0000 2.0000 0.0 0 0 223.1812 139.9069" />
<path d="M221.3001 161.4077 A2.0000 2.0000 0.0 0 0 221.7096 162.8044" />
<path d="M240.6513 189.9057 A2.0000 2.0000 0.0 0 0 240.7021 187.3976" />
<path d="M226.7580 203.9994 A2.0000 2.0000 0.0 0 0 229.2285 203.5188" />
<path d="M174.4123 176.1888 A2.0000 2.0000 0.0 0 0 173.9385 176.0097" />
<path d="M109.0000 158.9214 A2.0000 2.0000 0.0 0 0 110.5354 160.8667" />
</g> 
</svg>
